<svg xmlns="http://www.w3.org/2000/svg" xmlns:xlink="http://www.w3.org/1999/xlink" width="242" zoomAndPan="magnify" viewBox="0 0 181.5 55.5" height="74" preserveAspectRatio="xMidYMid meet" version="1.0"><defs><clipPath id="e46b84df57"><path d="M 10 0.597656 L 171.683594 0.597656 L 171.683594 54.117188 L 10 54.117188 Z M 10 0.597656 " clip-rule="nonzero"/></clipPath></defs><g clip-path="url(#e46b84df57)"><path fill="#a6a6a6" d="M 158.453125 0.597656 L 22.882812 0.597656 C 22.386719 0.597656 21.898438 0.597656 21.40625 0.601562 C 20.992188 0.605469 20.585938 0.613281 20.167969 0.617188 C 19.261719 0.628906 18.363281 0.707031 17.46875 0.855469 C 16.570312 1.003906 15.71875 1.285156 14.90625 1.691406 C 14.09375 2.105469 13.367188 2.632812 12.726562 3.269531 C 12.078125 3.90625 11.546875 4.632812 11.136719 5.4375 C 10.726562 6.246094 10.445312 7.09375 10.292969 7.984375 C 10.144531 8.871094 10.0625 9.765625 10.054688 10.664062 C 10.039062 11.074219 10.039062 11.484375 10.03125 11.894531 L 10.03125 42.820312 C 10.039062 43.238281 10.039062 43.640625 10.054688 44.054688 C 10.0625 44.953125 10.144531 45.847656 10.292969 46.734375 C 10.445312 47.625 10.722656 48.476562 11.136719 49.28125 C 11.546875 50.085938 12.078125 50.808594 12.726562 51.441406 C 13.367188 52.082031 14.09375 52.609375 14.90625 53.019531 C 15.71875 53.429688 16.570312 53.710938 17.46875 53.863281 C 18.363281 54.007812 19.261719 54.085938 20.167969 54.097656 C 20.585938 54.109375 20.992188 54.113281 21.40625 54.113281 C 21.898438 54.117188 22.386719 54.117188 22.882812 54.117188 L 158.453125 54.117188 C 158.9375 54.117188 159.429688 54.117188 159.914062 54.113281 C 160.324219 54.113281 160.746094 54.109375 161.15625 54.097656 C 162.058594 54.089844 162.957031 54.007812 163.851562 53.863281 C 164.75 53.707031 165.609375 53.425781 166.421875 53.019531 C 167.234375 52.609375 167.960938 52.082031 168.601562 51.441406 C 169.246094 50.804688 169.777344 50.085938 170.195312 49.28125 C 170.601562 48.476562 170.882812 47.625 171.027344 46.734375 C 171.179688 45.847656 171.261719 44.953125 171.277344 44.054688 C 171.285156 43.640625 171.285156 43.238281 171.285156 42.820312 C 171.292969 42.335938 171.292969 41.851562 171.292969 41.359375 L 171.292969 13.355469 C 171.292969 12.867188 171.292969 12.382812 171.285156 11.894531 C 171.285156 11.484375 171.285156 11.074219 171.277344 10.664062 C 171.261719 9.765625 171.179688 8.871094 171.027344 7.984375 C 170.882812 7.09375 170.601562 6.246094 170.195312 5.4375 C 169.339844 3.789062 168.085938 2.539062 166.421875 1.691406 C 165.609375 1.285156 164.75 1.007812 163.851562 0.855469 C 162.957031 0.707031 162.058594 0.628906 161.15625 0.617188 C 160.746094 0.609375 160.324219 0.601562 159.914062 0.601562 C 159.429688 0.597656 158.9375 0.597656 158.453125 0.597656 Z M 158.453125 0.597656 " fill-opacity="1" fill-rule="nonzero"/></g><path fill="#000000" d="M 21.414062 52.945312 C 21.003906 52.945312 20.601562 52.941406 20.195312 52.929688 C 19.347656 52.921875 18.511719 52.847656 17.675781 52.714844 C 16.894531 52.578125 16.148438 52.335938 15.441406 51.980469 C 14.742188 51.628906 14.113281 51.175781 13.558594 50.621094 C 13 50.070312 12.539062 49.449219 12.183594 48.75 C 11.828125 48.050781 11.582031 47.308594 11.453125 46.535156 C 11.316406 45.703125 11.238281 44.867188 11.230469 44.023438 C 11.21875 43.742188 11.210938 42.804688 11.210938 42.804688 L 11.210938 11.894531 C 11.210938 11.894531 11.222656 10.972656 11.230469 10.699219 C 11.238281 9.859375 11.3125 9.023438 11.453125 8.195312 C 11.582031 7.417969 11.824219 6.675781 12.183594 5.972656 C 12.539062 5.273438 12.996094 4.648438 13.550781 4.101562 C 14.109375 3.546875 14.738281 3.089844 15.441406 2.734375 C 16.148438 2.378906 16.890625 2.136719 17.671875 2.003906 C 18.507812 1.867188 19.351562 1.796875 20.199219 1.785156 L 21.414062 1.769531 L 159.90625 1.769531 L 161.136719 1.785156 C 161.976562 1.796875 162.8125 1.867188 163.640625 2.003906 C 164.429688 2.136719 165.179688 2.378906 165.894531 2.738281 C 167.328125 3.46875 168.410156 4.550781 169.148438 5.972656 C 169.5 6.671875 169.742188 7.410156 169.867188 8.179688 C 170.007812 9.015625 170.085938 9.859375 170.101562 10.707031 C 170.105469 11.085938 170.105469 11.492188 170.105469 11.894531 C 170.117188 12.398438 170.117188 12.875 170.117188 13.355469 L 170.117188 41.359375 C 170.117188 41.84375 170.117188 42.320312 170.105469 42.796875 C 170.105469 43.230469 170.105469 43.628906 170.101562 44.039062 C 170.085938 44.875 170.007812 45.699219 169.871094 46.519531 C 169.746094 47.304688 169.503906 48.046875 169.144531 48.753906 C 168.785156 49.445312 168.332031 50.0625 167.773438 50.609375 C 167.222656 51.167969 166.59375 51.621094 165.890625 51.976562 C 165.175781 52.335938 164.429688 52.582031 163.640625 52.714844 C 162.808594 52.847656 161.96875 52.921875 161.121094 52.929688 C 160.726562 52.941406 160.316406 52.945312 159.914062 52.945312 L 158.453125 52.949219 Z M 21.414062 52.945312 " fill-opacity="1" fill-rule="nonzero"/><path fill="#ffffff" d="M 43.410156 27.757812 C 43.425781 26.625 43.714844 25.5625 44.28125 24.578125 C 44.84375 23.589844 45.613281 22.796875 46.585938 22.203125 C 45.96875 21.328125 45.1875 20.636719 44.242188 20.128906 C 43.296875 19.621094 42.285156 19.351562 41.207031 19.316406 C 38.945312 19.082031 36.753906 20.660156 35.597656 20.660156 C 34.421875 20.660156 32.648438 19.339844 30.734375 19.378906 C 30.117188 19.398438 29.511719 19.496094 28.917969 19.671875 C 28.328125 19.847656 27.765625 20.097656 27.238281 20.417969 C 26.710938 20.734375 26.230469 21.117188 25.800781 21.558594 C 25.375 22.003906 25.007812 22.492188 24.707031 23.03125 C 22.101562 27.507812 24.046875 34.09375 26.542969 37.714844 C 27.792969 39.488281 29.25 41.46875 31.160156 41.398438 C 33.03125 41.320312 33.730469 40.214844 35.984375 40.214844 C 38.222656 40.214844 38.875 41.398438 40.824219 41.355469 C 42.832031 41.320312 44.09375 39.574219 45.300781 37.78125 C 46.203125 36.511719 46.882812 35.132812 47.347656 33.644531 C 46.761719 33.402344 46.226562 33.078125 45.742188 32.675781 C 45.253906 32.277344 44.835938 31.8125 44.488281 31.289062 C 44.136719 30.765625 43.871094 30.203125 43.6875 29.601562 C 43.503906 29.003906 43.414062 28.386719 43.410156 27.757812 Z M 43.410156 27.757812 " fill-opacity="1" fill-rule="nonzero"/><path fill="#ffffff" d="M 39.730469 16.9375 C 40.277344 16.285156 40.679688 15.554688 40.941406 14.746094 C 41.199219 13.9375 41.296875 13.109375 41.234375 12.265625 C 40.398438 12.351562 39.605469 12.585938 38.859375 12.972656 C 38.113281 13.355469 37.464844 13.859375 36.910156 14.484375 C 36.363281 15.105469 35.957031 15.804688 35.6875 16.582031 C 35.421875 17.363281 35.316406 18.160156 35.367188 18.984375 C 36.214844 18.992188 37.019531 18.816406 37.785156 18.457031 C 38.550781 18.097656 39.199219 17.589844 39.730469 16.9375 Z M 39.730469 16.9375 " fill-opacity="1" fill-rule="nonzero"/><path fill="#ffffff" d="M 67.039062 36.910156 L 60.660156 36.910156 L 59.128906 41.402344 L 56.425781 41.402344 L 62.46875 24.785156 L 65.277344 24.785156 L 71.320312 41.402344 L 68.570312 41.402344 Z M 61.320312 34.835938 L 66.378906 34.835938 L 63.886719 27.550781 L 63.816406 27.550781 Z M 61.320312 34.835938 " fill-opacity="1" fill-rule="nonzero"/><path fill="#ffffff" d="M 84.367188 35.34375 C 84.367188 39.109375 82.335938 41.527344 79.273438 41.527344 C 78.484375 41.566406 77.742188 41.398438 77.050781 41.015625 C 76.355469 40.632812 75.820312 40.097656 75.4375 39.40625 L 75.378906 39.40625 L 75.378906 45.40625 L 72.875 45.40625 L 72.875 29.285156 L 75.296875 29.285156 L 75.296875 31.300781 L 75.34375 31.300781 C 75.742188 30.617188 76.292969 30.082031 76.988281 29.699219 C 77.6875 29.3125 78.433594 29.136719 79.230469 29.160156 C 82.324219 29.160156 84.367188 31.589844 84.367188 35.34375 Z M 81.792969 35.34375 C 81.792969 32.890625 80.515625 31.28125 78.570312 31.28125 C 76.65625 31.28125 75.367188 32.925781 75.367188 35.34375 C 75.367188 37.785156 76.65625 39.417969 78.570312 39.417969 C 80.515625 39.417969 81.792969 37.820312 81.792969 35.34375 Z M 81.792969 35.34375 " fill-opacity="1" fill-rule="nonzero"/><path fill="#ffffff" d="M 97.796875 35.34375 C 97.796875 39.109375 95.765625 41.527344 92.703125 41.527344 C 91.914062 41.566406 91.171875 41.398438 90.476562 41.015625 C 89.785156 40.632812 89.246094 40.097656 88.863281 39.40625 L 88.808594 39.40625 L 88.808594 45.40625 L 86.304688 45.40625 L 86.304688 29.285156 L 88.726562 29.285156 L 88.726562 31.300781 L 88.773438 31.300781 C 89.171875 30.617188 89.71875 30.082031 90.417969 29.699219 C 91.113281 29.3125 91.859375 29.136719 92.65625 29.160156 C 95.753906 29.160156 97.796875 31.589844 97.796875 35.34375 Z M 95.222656 35.34375 C 95.222656 32.890625 93.945312 31.28125 91.996094 31.28125 C 90.082031 31.28125 88.796875 32.925781 88.796875 35.34375 C 88.796875 37.785156 90.082031 39.417969 91.996094 39.417969 C 93.945312 39.417969 95.222656 37.820312 95.222656 35.34375 Z M 95.222656 35.34375 " fill-opacity="1" fill-rule="nonzero"/><path fill="#ffffff" d="M 106.671875 36.769531 C 106.855469 38.417969 108.46875 39.5 110.671875 39.5 C 112.78125 39.5 114.300781 38.417969 114.300781 36.933594 C 114.300781 35.644531 113.386719 34.871094 111.214844 34.34375 L 109.046875 33.824219 C 105.976562 33.085938 104.546875 31.660156 104.546875 29.34375 C 104.546875 26.476562 107.066406 24.507812 110.636719 24.507812 C 114.171875 24.507812 116.597656 26.476562 116.679688 29.34375 L 114.152344 29.34375 C 114 27.6875 112.621094 26.6875 110.601562 26.6875 C 108.585938 26.6875 107.203125 27.699219 107.203125 29.171875 C 107.203125 30.347656 108.085938 31.039062 110.242188 31.566406 L 112.085938 32.015625 C 115.519531 32.824219 116.945312 34.191406 116.945312 36.621094 C 116.945312 39.730469 114.453125 41.675781 110.484375 41.675781 C 106.773438 41.675781 104.269531 39.777344 104.109375 36.769531 Z M 106.671875 36.769531 " fill-opacity="1" fill-rule="nonzero"/><path fill="#ffffff" d="M 122.351562 26.421875 L 122.351562 29.285156 L 124.671875 29.285156 L 124.671875 31.257812 L 122.351562 31.257812 L 122.351562 37.933594 C 122.351562 38.972656 122.816406 39.453125 123.835938 39.453125 C 124.113281 39.449219 124.386719 39.429688 124.660156 39.398438 L 124.660156 41.355469 C 124.199219 41.441406 123.738281 41.476562 123.269531 41.46875 C 120.796875 41.46875 119.835938 40.546875 119.835938 38.199219 L 119.835938 31.257812 L 118.0625 31.257812 L 118.0625 29.285156 L 119.835938 29.285156 L 119.835938 26.421875 Z M 122.351562 26.421875 " fill-opacity="1" fill-rule="nonzero"/><path fill="#ffffff" d="M 126.015625 35.34375 C 126.015625 31.53125 128.277344 29.136719 131.800781 29.136719 C 135.339844 29.136719 137.589844 31.53125 137.589844 35.34375 C 137.589844 39.167969 135.351562 41.550781 131.800781 41.550781 C 128.253906 41.550781 126.015625 39.167969 126.015625 35.34375 Z M 135.039062 35.34375 C 135.039062 32.730469 133.832031 31.1875 131.800781 31.1875 C 129.773438 31.1875 128.566406 32.742188 128.566406 35.34375 C 128.566406 37.96875 129.773438 39.5 131.800781 39.5 C 133.832031 39.5 135.039062 37.96875 135.039062 35.34375 Z M 135.039062 35.34375 " fill-opacity="1" fill-rule="nonzero"/><path fill="#ffffff" d="M 139.65625 29.285156 L 142.042969 29.285156 L 142.042969 31.347656 L 142.101562 31.347656 C 142.183594 31.027344 142.316406 30.726562 142.5 30.449219 C 142.683594 30.175781 142.910156 29.9375 143.175781 29.738281 C 143.445312 29.539062 143.738281 29.390625 144.058594 29.289062 C 144.375 29.191406 144.703125 29.148438 145.035156 29.160156 C 145.324219 29.160156 145.613281 29.191406 145.894531 29.253906 L 145.894531 31.578125 C 145.527344 31.46875 145.152344 31.417969 144.769531 31.429688 C 144.402344 31.414062 144.046875 31.476562 143.707031 31.613281 C 143.363281 31.753906 143.070312 31.957031 142.820312 32.226562 C 142.566406 32.492188 142.382812 32.800781 142.269531 33.148438 C 142.15625 33.496094 142.117188 33.851562 142.160156 34.214844 L 142.160156 41.402344 L 139.65625 41.402344 Z M 139.65625 29.285156 " fill-opacity="1" fill-rule="nonzero"/><path fill="#ffffff" d="M 157.441406 37.84375 C 157.105469 40.042969 154.945312 41.550781 152.1875 41.550781 C 148.636719 41.550781 146.433594 39.191406 146.433594 35.402344 C 146.433594 31.601562 148.648438 29.136719 152.082031 29.136719 C 155.457031 29.136719 157.582031 31.441406 157.582031 35.113281 L 157.582031 35.964844 L 148.964844 35.964844 L 148.964844 36.117188 C 148.941406 36.339844 148.949219 36.5625 148.976562 36.78125 C 149.003906 37.003906 149.054688 37.222656 149.128906 37.433594 C 149.203125 37.644531 149.296875 37.84375 149.414062 38.035156 C 149.53125 38.226562 149.667969 38.402344 149.824219 38.566406 C 149.980469 38.726562 150.148438 38.871094 150.335938 39 C 150.523438 39.125 150.71875 39.230469 150.929688 39.316406 C 151.136719 39.398438 151.351562 39.460938 151.574219 39.5 C 151.796875 39.539062 152.019531 39.554688 152.246094 39.546875 C 152.542969 39.574219 152.835938 39.554688 153.125 39.488281 C 153.414062 39.421875 153.683594 39.3125 153.9375 39.160156 C 154.191406 39.003906 154.414062 38.816406 154.609375 38.589844 C 154.800781 38.367188 154.953125 38.117188 155.0625 37.84375 Z M 148.976562 34.226562 L 155.074219 34.226562 C 155.097656 33.820312 155.039062 33.429688 154.894531 33.050781 C 154.753906 32.667969 154.539062 32.332031 154.253906 32.039062 C 153.972656 31.75 153.640625 31.527344 153.261719 31.371094 C 152.882812 31.21875 152.492188 31.144531 152.082031 31.152344 C 151.671875 31.152344 151.273438 31.226562 150.894531 31.382812 C 150.511719 31.535156 150.175781 31.757812 149.882812 32.046875 C 149.589844 32.335938 149.367188 32.667969 149.210938 33.046875 C 149.050781 33.425781 148.972656 33.816406 148.976562 34.226562 Z M 148.976562 34.226562 " fill-opacity="1" fill-rule="nonzero"/><path fill="#ffffff" d="M 61.007812 12.28125 C 61.269531 12.261719 61.53125 12.269531 61.792969 12.308594 C 62.050781 12.347656 62.304688 12.414062 62.550781 12.511719 C 62.796875 12.605469 63.027344 12.726562 63.246094 12.871094 C 63.464844 13.015625 63.664062 13.183594 63.84375 13.375 C 64.027344 13.5625 64.183594 13.769531 64.320312 13.996094 C 64.453125 14.21875 64.5625 14.457031 64.644531 14.703125 C 64.726562 14.953125 64.777344 15.207031 64.804688 15.46875 C 64.828125 15.726562 64.824219 15.988281 64.792969 16.246094 C 64.792969 18.796875 63.402344 20.261719 61.007812 20.261719 L 58.105469 20.261719 L 58.105469 12.28125 Z M 59.351562 19.132812 L 60.867188 19.132812 C 61.054688 19.144531 61.242188 19.136719 61.429688 19.105469 C 61.613281 19.074219 61.792969 19.027344 61.96875 18.957031 C 62.140625 18.886719 62.304688 18.796875 62.460938 18.691406 C 62.613281 18.585938 62.753906 18.460938 62.882812 18.324219 C 63.007812 18.1875 63.121094 18.039062 63.214844 17.875 C 63.304688 17.714844 63.378906 17.542969 63.4375 17.367188 C 63.492188 17.1875 63.527344 17.003906 63.539062 16.820312 C 63.554688 16.632812 63.546875 16.449219 63.519531 16.261719 C 63.546875 16.078125 63.550781 15.894531 63.535156 15.710938 C 63.519531 15.523438 63.484375 15.34375 63.425781 15.167969 C 63.371094 14.988281 63.296875 14.820312 63.203125 14.660156 C 63.109375 14.5 63 14.351562 62.871094 14.214844 C 62.746094 14.078125 62.605469 13.957031 62.453125 13.851562 C 62.296875 13.746094 62.132812 13.660156 61.960938 13.589844 C 61.789062 13.519531 61.609375 13.46875 61.425781 13.4375 C 61.242188 13.40625 61.054688 13.398438 60.867188 13.40625 L 59.351562 13.40625 Z M 59.351562 19.132812 " fill-opacity="1" fill-rule="nonzero"/><path fill="#ffffff" d="M 66.203125 17.25 C 66.164062 16.847656 66.207031 16.457031 66.335938 16.074219 C 66.464844 15.695312 66.664062 15.355469 66.9375 15.058594 C 67.210938 14.757812 67.53125 14.527344 67.902344 14.367188 C 68.269531 14.203125 68.660156 14.121094 69.0625 14.121094 C 69.46875 14.121094 69.855469 14.203125 70.226562 14.367188 C 70.597656 14.527344 70.917969 14.757812 71.191406 15.058594 C 71.464844 15.355469 71.664062 15.695312 71.792969 16.074219 C 71.917969 16.457031 71.964844 16.847656 71.925781 17.25 C 71.964844 17.648438 71.921875 18.039062 71.792969 18.421875 C 71.664062 18.804688 71.464844 19.144531 71.195312 19.441406 C 70.921875 19.742188 70.597656 19.972656 70.230469 20.136719 C 69.859375 20.296875 69.46875 20.378906 69.0625 20.378906 C 68.660156 20.378906 68.269531 20.296875 67.898438 20.136719 C 67.527344 19.972656 67.207031 19.742188 66.933594 19.441406 C 66.664062 19.144531 66.460938 18.804688 66.335938 18.421875 C 66.207031 18.039062 66.164062 17.648438 66.203125 17.25 Z M 70.695312 17.25 C 70.695312 15.941406 70.101562 15.179688 69.066406 15.179688 C 68.023438 15.179688 67.441406 15.941406 67.441406 17.25 C 67.441406 18.566406 68.023438 19.324219 69.066406 19.324219 C 70.101562 19.324219 70.695312 18.558594 70.695312 17.25 Z M 70.695312 17.25 " fill-opacity="1" fill-rule="nonzero"/><path fill="#ffffff" d="M 79.535156 20.261719 L 78.292969 20.261719 L 77.039062 15.824219 L 76.941406 15.824219 L 75.695312 20.261719 L 74.464844 20.261719 L 72.789062 14.238281 L 74.003906 14.238281 L 75.09375 18.835938 L 75.183594 18.835938 L 76.429688 14.238281 L 77.578125 14.238281 L 78.824219 18.835938 L 78.921875 18.835938 L 80.003906 14.238281 L 81.199219 14.238281 Z M 79.535156 20.261719 " fill-opacity="1" fill-rule="nonzero"/><path fill="#ffffff" d="M 82.605469 14.238281 L 83.757812 14.238281 L 83.757812 15.195312 L 83.847656 15.195312 C 84.003906 14.84375 84.25 14.570312 84.582031 14.371094 C 84.914062 14.175781 85.273438 14.089844 85.660156 14.121094 C 85.960938 14.101562 86.25 14.144531 86.527344 14.25 C 86.808594 14.359375 87.046875 14.523438 87.253906 14.742188 C 87.457031 14.960938 87.605469 15.210938 87.691406 15.496094 C 87.78125 15.777344 87.804688 16.070312 87.761719 16.363281 L 87.761719 20.261719 L 86.5625 20.261719 L 86.5625 16.660156 C 86.5625 15.691406 86.140625 15.210938 85.253906 15.210938 C 85.050781 15.203125 84.855469 15.234375 84.667969 15.3125 C 84.476562 15.386719 84.316406 15.496094 84.175781 15.644531 C 84.035156 15.792969 83.933594 15.960938 83.871094 16.152344 C 83.804688 16.34375 83.78125 16.539062 83.804688 16.738281 L 83.804688 20.261719 L 82.605469 20.261719 Z M 82.605469 14.238281 " fill-opacity="1" fill-rule="nonzero"/><path fill="#ffffff" d="M 89.667969 11.886719 L 90.867188 11.886719 L 90.867188 20.261719 L 89.667969 20.261719 Z M 89.667969 11.886719 " fill-opacity="1" fill-rule="nonzero"/><path fill="#ffffff" d="M 92.53125 17.25 C 92.492188 16.847656 92.539062 16.457031 92.664062 16.074219 C 92.792969 15.695312 92.992188 15.355469 93.265625 15.054688 C 93.539062 14.757812 93.859375 14.527344 94.230469 14.367188 C 94.601562 14.203125 94.988281 14.121094 95.394531 14.121094 C 95.796875 14.121094 96.1875 14.203125 96.554688 14.367188 C 96.925781 14.527344 97.25 14.757812 97.519531 15.054688 C 97.792969 15.355469 97.992188 15.695312 98.121094 16.074219 C 98.25 16.457031 98.292969 16.847656 98.253906 17.25 C 98.292969 17.648438 98.25 18.039062 98.121094 18.421875 C 97.996094 18.804688 97.796875 19.144531 97.523438 19.441406 C 97.25 19.742188 96.929688 19.972656 96.558594 20.136719 C 96.1875 20.296875 95.796875 20.378906 95.394531 20.378906 C 94.988281 20.378906 94.597656 20.296875 94.230469 20.136719 C 93.859375 19.972656 93.535156 19.742188 93.261719 19.441406 C 92.992188 19.144531 92.792969 18.804688 92.664062 18.421875 C 92.535156 18.039062 92.492188 17.648438 92.53125 17.25 Z M 97.023438 17.25 C 97.023438 15.941406 96.433594 15.179688 95.394531 15.179688 C 94.355469 15.179688 93.769531 15.941406 93.769531 17.25 C 93.769531 18.566406 94.355469 19.324219 95.394531 19.324219 C 96.433594 19.324219 97.023438 18.558594 97.023438 17.25 Z M 97.023438 17.25 " fill-opacity="1" fill-rule="nonzero"/><path fill="#ffffff" d="M 99.515625 18.558594 C 99.515625 17.476562 100.328125 16.851562 101.773438 16.761719 L 103.417969 16.667969 L 103.417969 16.148438 C 103.417969 15.511719 102.992188 15.152344 102.175781 15.152344 C 101.503906 15.152344 101.042969 15.394531 100.910156 15.820312 L 99.75 15.820312 C 99.871094 14.785156 100.851562 14.121094 102.230469 14.121094 C 103.75 14.121094 104.609375 14.875 104.609375 16.148438 L 104.609375 20.261719 L 103.457031 20.261719 L 103.457031 19.417969 L 103.359375 19.417969 C 103.164062 19.726562 102.90625 19.964844 102.578125 20.132812 C 102.253906 20.304688 101.90625 20.378906 101.539062 20.363281 C 101.28125 20.390625 101.027344 20.363281 100.78125 20.28125 C 100.535156 20.203125 100.316406 20.078125 100.125 19.90625 C 99.929688 19.734375 99.78125 19.53125 99.675781 19.296875 C 99.570312 19.0625 99.515625 18.816406 99.515625 18.558594 Z M 103.417969 18.042969 L 103.417969 17.539062 L 101.933594 17.636719 C 101.097656 17.691406 100.71875 17.972656 100.71875 18.503906 C 100.71875 19.046875 101.195312 19.363281 101.84375 19.363281 C 102.039062 19.382812 102.226562 19.363281 102.414062 19.304688 C 102.597656 19.25 102.765625 19.15625 102.914062 19.035156 C 103.058594 18.910156 103.179688 18.761719 103.265625 18.589844 C 103.351562 18.417969 103.402344 18.238281 103.417969 18.042969 Z M 103.417969 18.042969 " fill-opacity="1" fill-rule="nonzero"/><path fill="#ffffff" d="M 106.183594 17.25 C 106.183594 15.34375 107.167969 14.136719 108.703125 14.136719 C 109.089844 14.121094 109.449219 14.207031 109.785156 14.398438 C 110.125 14.589844 110.382812 14.855469 110.5625 15.195312 L 110.652344 15.195312 L 110.652344 11.886719 L 111.851562 11.886719 L 111.851562 20.261719 L 110.703125 20.261719 L 110.703125 19.3125 L 110.605469 19.3125 C 110.414062 19.648438 110.144531 19.910156 109.800781 20.101562 C 109.460938 20.289062 109.09375 20.375 108.703125 20.363281 C 107.15625 20.363281 106.183594 19.15625 106.183594 17.25 Z M 107.421875 17.25 C 107.421875 18.527344 108.027344 19.296875 109.042969 19.296875 C 110.050781 19.296875 110.675781 18.515625 110.675781 17.253906 C 110.675781 15.996094 110.042969 15.207031 109.042969 15.207031 C 108.035156 15.207031 107.421875 15.980469 107.421875 17.25 Z M 107.421875 17.25 " fill-opacity="1" fill-rule="nonzero"/><path fill="#ffffff" d="M 116.804688 17.25 C 116.765625 16.847656 116.8125 16.457031 116.9375 16.074219 C 117.066406 15.695312 117.265625 15.355469 117.539062 15.058594 C 117.8125 14.757812 118.132812 14.527344 118.503906 14.367188 C 118.875 14.203125 119.261719 14.121094 119.667969 14.121094 C 120.070312 14.121094 120.460938 14.203125 120.828125 14.367188 C 121.199219 14.527344 121.519531 14.757812 121.792969 15.058594 C 122.066406 15.355469 122.265625 15.695312 122.394531 16.074219 C 122.523438 16.457031 122.566406 16.847656 122.527344 17.25 C 122.566406 17.648438 122.523438 18.039062 122.394531 18.421875 C 122.269531 18.804688 122.066406 19.144531 121.796875 19.441406 C 121.523438 19.742188 121.203125 19.972656 120.832031 20.136719 C 120.460938 20.296875 120.070312 20.378906 119.667969 20.378906 C 119.261719 20.378906 118.871094 20.296875 118.5 20.136719 C 118.132812 19.972656 117.808594 19.742188 117.535156 19.441406 C 117.265625 19.144531 117.066406 18.804688 116.9375 18.421875 C 116.808594 18.039062 116.765625 17.648438 116.804688 17.25 Z M 121.296875 17.25 C 121.296875 15.941406 120.707031 15.179688 119.667969 15.179688 C 118.628906 15.179688 118.042969 15.941406 118.042969 17.25 C 118.042969 18.566406 118.628906 19.324219 119.667969 19.324219 C 120.707031 19.324219 121.296875 18.558594 121.296875 17.25 Z M 121.296875 17.25 " fill-opacity="1" fill-rule="nonzero"/><path fill="#ffffff" d="M 124.136719 14.238281 L 125.289062 14.238281 L 125.289062 15.195312 L 125.378906 15.195312 C 125.53125 14.84375 125.777344 14.570312 126.109375 14.371094 C 126.441406 14.175781 126.800781 14.089844 127.1875 14.121094 C 127.488281 14.101562 127.777344 14.144531 128.054688 14.25 C 128.335938 14.359375 128.578125 14.523438 128.78125 14.742188 C 128.984375 14.960938 129.132812 15.210938 129.222656 15.496094 C 129.308594 15.777344 129.332031 16.070312 129.289062 16.363281 L 129.289062 20.261719 L 128.089844 20.261719 L 128.089844 16.660156 C 128.089844 15.691406 127.667969 15.210938 126.78125 15.210938 C 126.578125 15.203125 126.382812 15.234375 126.195312 15.3125 C 126.007812 15.386719 125.84375 15.496094 125.703125 15.644531 C 125.5625 15.792969 125.460938 15.960938 125.398438 16.152344 C 125.332031 16.34375 125.3125 16.539062 125.332031 16.738281 L 125.332031 20.261719 L 124.136719 20.261719 Z M 124.136719 14.238281 " fill-opacity="1" fill-rule="nonzero"/><path fill="#ffffff" d="M 136.054688 12.738281 L 136.054688 14.265625 L 137.371094 14.265625 L 137.371094 15.265625 L 136.054688 15.265625 L 136.054688 18.367188 C 136.054688 18.996094 136.316406 19.273438 136.914062 19.273438 C 137.066406 19.273438 137.21875 19.261719 137.371094 19.246094 L 137.371094 20.234375 C 137.15625 20.273438 136.9375 20.292969 136.71875 20.296875 C 135.386719 20.296875 134.855469 19.832031 134.855469 18.667969 L 134.855469 15.265625 L 133.894531 15.265625 L 133.894531 14.265625 L 134.855469 14.265625 L 134.855469 12.738281 Z M 136.054688 12.738281 " fill-opacity="1" fill-rule="nonzero"/><path fill="#ffffff" d="M 139.007812 11.886719 L 140.191406 11.886719 L 140.191406 15.207031 L 140.289062 15.207031 C 140.449219 14.851562 140.703125 14.574219 141.042969 14.375 C 141.378906 14.179688 141.746094 14.097656 142.136719 14.128906 C 142.4375 14.109375 142.722656 14.160156 143 14.269531 C 143.273438 14.382812 143.511719 14.546875 143.714844 14.761719 C 143.917969 14.980469 144.0625 15.230469 144.152344 15.511719 C 144.242188 15.792969 144.269531 16.082031 144.226562 16.375 L 144.226562 20.261719 L 143.027344 20.261719 L 143.027344 16.667969 C 143.027344 15.703125 142.578125 15.21875 141.730469 15.21875 C 141.523438 15.199219 141.320312 15.226562 141.125 15.300781 C 140.929688 15.371094 140.757812 15.480469 140.609375 15.628906 C 140.460938 15.773438 140.355469 15.945312 140.28125 16.140625 C 140.210938 16.335938 140.183594 16.539062 140.203125 16.746094 L 140.203125 20.261719 L 139.007812 20.261719 Z M 139.007812 11.886719 " fill-opacity="1" fill-rule="nonzero"/><path fill="#ffffff" d="M 151.210938 18.636719 C 151.128906 18.910156 151.003906 19.164062 150.832031 19.394531 C 150.660156 19.628906 150.457031 19.824219 150.214844 19.980469 C 149.976562 20.140625 149.714844 20.253906 149.433594 20.324219 C 149.152344 20.390625 148.867188 20.410156 148.582031 20.378906 C 148.382812 20.382812 148.183594 20.367188 147.988281 20.332031 C 147.789062 20.292969 147.601562 20.234375 147.417969 20.15625 C 147.234375 20.078125 147.0625 19.980469 146.898438 19.863281 C 146.734375 19.75 146.589844 19.617188 146.453125 19.46875 C 146.320312 19.320312 146.207031 19.160156 146.109375 18.988281 C 146.007812 18.816406 145.929688 18.632812 145.871094 18.441406 C 145.8125 18.253906 145.777344 18.058594 145.761719 17.863281 C 145.746094 17.664062 145.75 17.464844 145.777344 17.269531 C 145.75 17.074219 145.746094 16.875 145.761719 16.675781 C 145.777344 16.476562 145.816406 16.285156 145.875 16.09375 C 145.933594 15.902344 146.011719 15.71875 146.109375 15.546875 C 146.207031 15.371094 146.320312 15.210938 146.453125 15.0625 C 146.585938 14.914062 146.734375 14.78125 146.894531 14.660156 C 147.058594 14.542969 147.230469 14.445312 147.414062 14.363281 C 147.59375 14.28125 147.785156 14.222656 147.980469 14.179688 C 148.175781 14.140625 148.375 14.121094 148.578125 14.121094 C 150.265625 14.121094 151.285156 15.265625 151.285156 17.160156 L 151.285156 17.574219 L 147 17.574219 L 147 17.640625 C 146.980469 17.863281 147.007812 18.082031 147.082031 18.292969 C 147.15625 18.507812 147.269531 18.695312 147.421875 18.859375 C 147.574219 19.023438 147.757812 19.148438 147.964844 19.238281 C 148.171875 19.328125 148.386719 19.371094 148.613281 19.367188 C 148.90625 19.402344 149.183594 19.351562 149.449219 19.21875 C 149.710938 19.085938 149.914062 18.890625 150.058594 18.636719 Z M 147 16.695312 L 150.0625 16.695312 C 150.078125 16.492188 150.050781 16.292969 149.980469 16.097656 C 149.914062 15.90625 149.808594 15.734375 149.664062 15.585938 C 149.523438 15.4375 149.355469 15.324219 149.164062 15.246094 C 148.976562 15.167969 148.777344 15.128906 148.570312 15.132812 C 148.359375 15.132812 148.160156 15.167969 147.964844 15.246094 C 147.769531 15.324219 147.601562 15.4375 147.453125 15.585938 C 147.304688 15.730469 147.191406 15.902344 147.113281 16.09375 C 147.035156 16.285156 146.996094 16.488281 147 16.695312 Z M 147 16.695312 " fill-opacity="1" fill-rule="nonzero"/></svg>